<?xml version="1.0" encoding="UTF-8"?>
<svg xmlns="http://www.w3.org/2000/svg" viewBox="0 0 660.57 660.57">
  <defs>
    <style>
      .cls-1 {
        fill: #fff;
        opacity: 0;
      }

      .cls-2 {
        isolation: isolate;
      }

      .cls-3 {
        mix-blend-mode: overlay;
        opacity: .28;
      }

      .cls-4 {
        fill: #542e91;
      }
    </style>
  </defs>
  <g class="cls-2">
    <g id="Layer_1" data-name="Layer 1">
      <rect class="cls-1" width="660.57" height="660.57"/>
      <g class="cls-3">
        <g id="Layer0_0_FILL" data-name="Layer0 0 FILL">
          <path class="cls-4" d="m222.46,528.17c.04-.1.06-.18.08-.26.97-12.76-.83-24.65-5.4-35.65l-19.75,3.35c-1.93,5.74-2.35,11.42-1.26,17.07,1.32,6.89,5.2,11.78,11.65,14.67,4.9,2.06,9.79,2.34,14.68.81h0Zm.99-108.53l-15.47,3.35-4.4,35.76,37.83-3.9c-4.23-13.07-10.22-24.81-17.96-35.2h0Zm19.88-63.76c-4.53-6.45-9.4-11.86-14.62-16.23l-9.13,3.01-5.86,39.63c6.58-2.2,13.26-4.04,20.02-5.51,7.03-1.54,13.61-2.71,19.74-3.49-2.83-6.02-6.21-11.83-10.15-17.42h0Zm10.94,20.17c-1.75.17-3.52.35-5.29.54-11.77,1.23-23.38,3.55-34.84,6.94l-2.88,15.19,14.73,18.23c9.98-1.18,19.98-1.53,29.99-1.06,6.55.33,12.48.62,17.77.87-1.23-3.46-2.5-6.88-3.81-10.28-4.22-11.02-9.44-21.16-15.67-30.42h0Zm84.39-72.79c.04-.95-.07-1.85-.33-2.69-1.48-4.68-4.51-8.16-9.11-10.45-8.8-4.31-17-3.28-24.6,3.1l-1.84,2.29,33.93,14.94c1.2-2.19,1.85-4.58,1.95-7.19Z"/>
          <path class="cls-4" d="m243.64,495.54c-7.19-2.24-14.52-3.43-21.99-3.56,3.47,11.26,5.09,22.86,4.88,34.78l20.04-17.3.44-12.87c-1.12-.35-2.25-.7-3.37-1.05Z"/>
          <path class="cls-4" d="m247.54,492.36c-.1-2.85-.22-5.71-.37-8.6-.5-8.71-2.33-17.02-5.51-24.94-1.5-.1-2.99-.17-4.49-.22-10.51-.44-20.93.23-31.27,2.02l15.19,28.95,26.44,2.79h0Zm36.02-22.16c-1.6-.77-3.19-1.54-4.79-2.31-10.41-5.01-21.38-8.09-32.88-9.25l6.36,35.72,9.83,3.75,21.4-18.19.08-9.71h0Zm-38.25-14.58c4.98.38,9.86,1.11,14.66,2.2,8.6,1.97,16.85,4.56,24.75,7.76-.54-5.8-1.32-11.52-2.36-17.17-1.79-9.75-4.44-19.14-7.95-28.18-3.94-.44-7.88-.84-11.82-1.19-11.78-1.03-23.5-1.05-35.18-.04l17.9,36.63h0Zm70.79-21.62c-1.56-.7-3.13-1.38-4.68-2.04-10.36-4.54-21.09-8.07-32.18-10.6,3.87,13.04,6.55,26.29,8.04,39.75.41,3.78,2.03,7.02,4.85,9.71,3.31-1.94,6.49-4.05,9.55-6.32,5.42-4.04,10.47-8.58,15.17-13.62l-.74-16.89h0Zm37.25-12.8l-.29-17.29c-3.62-2.44-7.23-4.86-10.85-7.25-9.91-6.22-20.48-10.95-31.72-14.19,1.77,6.11,3.41,12.35,4.9,18.7,2.37,10.25,4.27,20.52,5.72,30.8l11.28,7.35,20.95-18.11h0Zm-22.8-81.33c-.72-.8-1.44-1.58-2.13-2.35-.4-.41-.8-.81-1.19-1.22l-33.19-5.53-5.03,7.21c1.01,1.66,2.02,3.35,3.03,5.05,6.68,11.51,12.3,23.37,16.87,35.61,1.92.52,3.83,1.06,5.74,1.61,13.84,4.4,26.82,10.3,38.94,17.69-.12-2.4-.26-4.77-.42-7.11-1.03-16.04-4.93-31.25-11.69-45.63-4.25-.6-7.89-2.38-10.92-5.33Z"/>
          <path class="cls-4" d="m256.54,501.51l-4.85-3.26.03,7.44,4.82-4.17h0Zm65.01-54.32l5.25-4.47-5.56-5.56.31,10.03Z"/>
          <path class="cls-4" d="m202.7,461.42l-4.15,31.87,18.66-4.3-.02-.21c-3.52-9.82-8.35-18.94-14.49-27.36h0Zm73.01-172.68c.16-2.26-.05-4.55-.61-6.88-.54-2.14-1.55-4.06-3.03-5.76-6.02-4.75-13.05-7.45-21.1-8.08-3.33-.25-6.65-.66-9.94-1.22-7.26-1.19-13.86.04-19.79,3.71-2.18,2.5-2.71,5.19-1.57,8.07.2.54.53.87.99.99,18.23,3.24,36.58,6.3,55.05,9.18h0Zm57.8,28.57l-.26-.15-35.18-14.74c-2.29,5.4-3.5,11.03-3.62,16.9-.07,3.01-.1,6.03-.08,9.08,0,.05.05.1.12.16l33.08,3.84c-.57-3.06-.03-5.9,1.62-8.54,1.39-2.21,2.83-4.39,4.32-6.56h0Zm57.41,44.87l-2.65-9.42c-8.66-7.51-17.68-13.64-27.08-18.38l-5.5,5.8,35.23,21.99Z"/>
          <path class="cls-4" d="m210.91,402.33l-2.36,18.99,14.13-3.91-11.77-15.09h0Zm199.8-28.77c.04-.1.06-.18.08-.26-5.36-6.53-11.49-12.26-18.38-17.2l1.92,9.21c1.54,1.32,2.87,2.76,4.01,4.31,1.74,2.34,3.95,3.88,6.63,4.63,1.98.61,3.89.38,5.73-.69Z"/>
          <path class="cls-4" d="m221.06,330.18l-.69,10.63,6.73-4.24-6.04-6.39Z"/>
          <path class="cls-4" d="m269.47,305.01l4.13-9.27-15.94-3.62,11.81,12.88Z"/>
          <path class="cls-4" d="m265.29,335.64c-1.11-1.27-2.28-2.39-3.52-3.34l-29,5.63,24.51,35.87c11.97-.64,23.92-.03,35.83,1.84,4.85.75,8.76,1.16,11.72,1.24l-17.66-37.96c-3.21,1.77-6.67,2.58-10.4,2.44-4.62-.18-8.46-2.09-11.5-5.73h0Zm-.76-21.95c1.05-2.26,1.72-4.26,2.01-5.99l-12.92-15.88-26.51-2.08-5.31,38.48,9.51,8.6,31.17-7.53c-.15-.93-.25-1.84-.3-2.73-.35-4.5.44-8.78,2.36-12.87h0Zm51.85,115.29c-.47-6.04-1.21-12.07-2.21-18.07-1.69-10.35-4.54-20.24-8.54-29.68-3.94-.82-7.9-1.6-11.87-2.32-11.63-2.07-23.32-3.1-35.08-3.09l19.49,42.12,38.21,11.04h0Zm75.23-45.01c1.11-5.46,1.01-10.77-.28-15.94-12.65-10.17-26.16-18.22-40.52-24.14l-5.08,1.15c2.37,7.02,4.46,14.19,6.27,21.53,2.93,11.98,4.85,23.94,5.74,35.86l9.73,7.05,23.25-19.78c.24-1.94.54-3.85.9-5.73h0Zm23.86-45.74c-3.75-2.97-7.27-6.16-10.57-9.58-9.66-8.7-20.75-13.98-33.28-15.83l-7.41,14.62c15.13,8.89,28.87,19.57,41.21,32.04,3.14,3.25,6.53,6.21,10.17,8.88,3.91,2.72,8.09,4.16,12.55,4.34.89-.69,1.76-1.4,2.6-2.12,1.14-1,2.06-2.2,2.76-3.59.66-1.3,1.09-2.7,1.28-4.21-4.43-9.7-10.87-17.87-19.31-24.54Z"/>
          <path class="cls-4" d="m362.9,414.04c.01-.12,0-.21-.03-.28-.64-2.86-2.33-4.92-5.06-6.18l-.25,8.81,5.34-2.35Z"/>
          <path class="cls-4" d="m396.1,385.53l6.84-6.45-7.46-7.73.62,14.17Z"/>
          <path class="cls-4" d="m287.5,210.49l-.11,2.21,17.75,2.32-7.5-3.47c-1.41.7-2.97.85-4.66.47-.77-.11-1.45-.37-2.04-.81-1.52-.92-2.66-1.16-3.44-.72Z"/>
          <path class="cls-4" d="m453.16,232.62c-3.19-4.19-6.57-8.26-10.11-12.22,2.2-1.89,4.62-4.02,7.24-6.38,4.84-4.37,8.75-9.37,11.73-14.98,2.08-3.91,2.91-8.07,2.5-12.49-.89-9.54-4.31-18.08-10.26-25.63-6.36-8.14-13.93-14.89-22.71-20.24l-.64,7.15c-1.84,2.02-3.85,3.87-6.06,5.55-2.88,2.2-6.05,3.79-9.51,4.75-3.28.9-6.61,1.04-9.98.41-12.8-2.36-25.52-2.65-38.17-.85-1.3.19-2.56.58-3.77,1.19-8.05,3.92-13.7,10.07-16.94,18.45,7.38,1.2,14.62,2.9,21.73,5.08,11.53,3.56,22.6,8.18,33.21,13.85,11.85,6.24,23.15,13.38,33.92,21.39-1.4.41-2.88.37-4.44-.12-4.71-1.61-9.19-3.83-13.44-6.65-9.97-6.52-20.52-11.85-31.67-16-14.83-5.61-30.1-9.42-45.84-11.42-9.8-1.27-19.48-.86-29.05,1.25-4.22.95-8.14,2.68-11.76,5.17-4.44,3.03-8.24,6.73-11.4,11.09-2.47,3.39-3.86,7.06-4.19,11.01l3.83.72.11-2.21c.78-.44,1.93-.2,3.44.72.59.43,1.27.7,2.04.81,1.69.38,3.25.23,4.66-.47l7.5,3.47c11.48,2.2,22.9,4.84,34.26,7.93,11.44,3.15,22.48,7.3,33.13,12.45,11.86,5.75,23.25,12.3,34.16,19.66,9.88,6.36,19.15,13.43,27.81,21.21,1.82,1.93,3.12,4.15,3.91,6.66-2.67-.87-5.22-1.98-7.66-3.35-6.74-4.01-13.27-8.43-19.58-13.24-10.76-7.33-21.99-13.95-33.68-19.86-19.24-9.98-39.34-17.57-60.28-22.78-6.6-1.64-13.24-3.17-19.91-4.57-13.69-3-26.94-1.68-39.74,3.96-6.58,2.89-12.18,7.04-16.78,12.45-2.81,3.28-5.02,6.91-6.64,10.89-.73,1.76-1.25,3.54-1.54,5.34-.45,3-.26,5.91.59,8.72,4.77-.21,9.51-.09,14.21.37,9.66.91,18.82,3.69,27.47,8.35,2.24,1.24,3.85,3.03,4.83,5.35,2,4.46,2.88,9.11,2.65,13.95-.53,11.46-4.48,21.74-11.88,30.83-.71.88-1.21,1.9-1.51,3.07-.94,3.76-.11,6.94,2.49,9.54,1.83,2.02,4.1,2.93,6.81,2.73,2.39-.21,4.51-1.23,6.36-3.06,1.33-1.28,2.26-2.76,2.81-4.45.83-2.57,1.01-5.15.54-7.74-.33-1.97-.31-3.91.08-5.82,2.19-10.89,7.52-19.92,15.97-27.1,7.46-6.31,15.73-7.78,24.81-4.4,6.62,2.42,11.62,6.55,15.02,12.39,1.65,2.99,2.2,6.22,1.66,9.7-1.47,9.3-5.19,17.58-11.15,24.84-.15.18-.28.37-.4.57-.03.57,0,1.16.12,1.76.13.74.36,1.46.69,2.16.57,1.31,1.39,2.35,2.47,3.13,1.01.81,2.1,1.47,3.26,1.98,1.06.43,2.15.56,3.27.39,1.14-.15,2.22-.54,3.24-1.17.87-.5,1.73-.78,2.6-.85l19.45-30.56c2.86-.22,5.65-.08,8.37.4,5.46.94,10.59,2.78,15.37,5.52,7.36,4.3,14.24,9.38,20.64,15.25,8.18,7,15.8,14.55,22.87,22.66,2.26-.53,4.42-1.39,6.48-2.58,3.04-1.77,5.64-4.05,7.79-6.83,2.44-3.15,4.4-6.56,5.87-10.24,2.4-5.91,2.82-11.94,1.26-18.09-2.07-7.71-6.02-14.4-11.85-20.07-.07-.23-.15-.44-.25-.65,2.05-3.34,4.8-6.37,8.26-9.08,4.81-3.76,7.88-8.61,9.22-14.57.99-4.4.99-8.83,0-13.28-1.68-8.08-4.99-15.51-9.93-22.3Z"/>
        </g>
      </g>
    </g>
  </g>
</svg>